<svg width="12" height="14" viewBox="0 0 12 14" fill="none" xmlns="http://www.w3.org/2000/svg">
<g clip-path="url(#clip0_1_68)">
<path d="M11.4341 3.18958H0.668518C0.465393 3.18958 0.363831 3.08801 0.363831 2.88489V2.07239C0.363831 1.86926 0.465393 1.7677 0.668518 1.7677H11.4341C11.6373 1.7677 11.7388 1.86926 11.7388 2.07239V2.88489C11.7388 3.08801 11.6373 3.18958 11.4341 3.18958ZM11.4341 7.25208H0.668518C0.465393 7.25208 0.363831 7.15051 0.363831 6.94739V6.13489C0.363831 5.93176 0.465393 5.8302 0.668518 5.8302H11.4341C11.6373 5.8302 11.7388 5.93176 11.7388 6.13489V6.94739C11.7388 7.15051 11.6373 7.25208 11.4341 7.25208ZM11.4341 11.3146H0.668518C0.465393 11.3146 0.363831 11.213 0.363831 11.0099V10.1974C0.363831 9.99426 0.465393 9.8927 0.668518 9.8927H11.4341C11.6373 9.8927 11.7388 9.99426 11.7388 10.1974V11.0099C11.7388 11.213 11.6373 11.3146 11.4341 11.3146Z" fill="#101213"/>
</g>
<defs>
<clipPath id="clip0_1_68">
<rect width="11.38" height="13" fill="white" transform="matrix(1 0 0 -1 0.361328 13.0411)"/>
</clipPath>
</defs>
</svg>
