<svg width="14" height="14" viewBox="0 0 14 14" fill="none" xmlns="http://www.w3.org/2000/svg">
<path d="M12.6626 0.666138C13.3228 0.666138 13.8813 1.22473 13.8813 1.88489V10.0099C13.8813 10.6954 13.3228 11.2286 12.6626 11.2286H11.4438V12.4474C11.4438 13.1329 10.8853 13.6661 10.2251 13.6661H2.1001C1.41455 13.6661 0.881348 13.1329 0.881348 12.4474V4.32239C0.881348 3.66223 1.41455 3.10364 2.1001 3.10364H3.31885V1.88489C3.31885 1.22473 3.85205 0.666138 4.5376 0.666138H12.6626ZM10.0728 12.4474C10.1489 12.4474 10.2251 12.3966 10.2251 12.295V11.2286H4.5376C3.85205 11.2286 3.31885 10.6954 3.31885 10.0099V4.32239H2.25244C2.15088 4.32239 2.1001 4.39856 2.1001 4.47473V12.295C2.1001 12.3966 2.15088 12.4474 2.25244 12.4474H10.0728ZM12.5103 10.0099C12.5864 10.0099 12.6626 9.95911 12.6626 9.85754V2.03723C12.6626 1.96106 12.5864 1.88489 12.5103 1.88489H4.68994C4.58838 1.88489 4.5376 1.96106 4.5376 2.03723V9.85754C4.5376 9.95911 4.58838 10.0099 4.68994 10.0099H12.5103Z" fill="#101213"/>
</svg>
