<svg width="15" height="17" viewBox="0 0 15 17" fill="none" xmlns="http://www.w3.org/2000/svg">
<path d="M3.48633 14.5012H0.580078V5.15747H3.48633V14.5012ZM2.01758 3.90747C1.11133 3.90747 0.361328 3.12622 0.361328 2.18872C0.361328 1.28247 1.11133 0.532471 2.01758 0.532471C2.95508 0.532471 3.70508 1.28247 3.70508 2.18872C3.70508 3.12622 2.95508 3.90747 2.01758 3.90747ZM14.3301 14.5012H11.4551V9.96997C11.4551 8.87622 11.4238 7.50122 9.92383 7.50122C8.42383 7.50122 8.20508 8.65747 8.20508 9.87622V14.5012H5.29883V5.15747H8.08008V6.43872H8.11133C8.51758 5.71997 9.45508 4.93872 10.8613 4.93872C13.7988 4.93872 14.3613 6.87622 14.3613 9.37622V14.5012H14.3301Z" fill="#707070"/>
</svg>
