<svg width="22" height="18" viewBox="0 0 22 18" fill="none" xmlns="http://www.w3.org/2000/svg">
<g clip-path="url(#clip0_1_19)">
<path d="M14.7863 3.99756C15.0397 3.79834 15.2931 3.79834 15.5466 3.99756L21.8184 8.38037C22.1035 8.55745 22.1035 8.73454 21.8184 8.91162L15.5466 13.2944C15.2931 13.4937 15.0397 13.4937 14.7863 13.2944L13.8361 12.6636C13.551 12.4644 13.551 12.2762 13.8361 12.0991L17.6847 9.50928H1.29242C0.912315 9.50928 0.72226 9.37646 0.72226 9.11084V8.18115C0.72226 7.91553 0.912315 7.78271 1.29242 7.78271H17.6847L13.8361 5.19287C13.551 5.01579 13.551 4.82764 13.8361 4.62842L14.7863 3.99756Z" fill="white"/>
</g>
<defs>
<clipPath id="clip0_1_19">
<rect width="21.2405" height="17" fill="white" transform="matrix(1 0 0 -1 0.721313 17.146)"/>
</clipPath>
</defs>
</svg>
