<svg width="11" height="14" viewBox="0 0 11 14" fill="none" xmlns="http://www.w3.org/2000/svg">
<path d="M5.08852 13.0723C1.38148 7.74023 0.721329 7.18164 0.721329 5.20117C0.721329 2.50977 2.87953 0.326172 5.59633 0.326172C8.28773 0.326172 10.4713 2.50977 10.4713 5.20117C10.4713 7.18164 9.78578 7.74023 6.07875 13.0723C5.85023 13.4277 5.31703 13.4277 5.08852 13.0723ZM5.59633 7.23242C6.71352 7.23242 7.62758 6.34375 7.62758 5.20117C7.62758 4.08398 6.71352 3.16992 5.59633 3.16992C4.45375 3.16992 3.56508 4.08398 3.56508 5.20117C3.56508 6.34375 4.45375 7.23242 5.59633 7.23242Z" fill="#3A10E5"/>
</svg>
