<svg width="17" height="17" viewBox="0 0 17 17" fill="none" xmlns="http://www.w3.org/2000/svg">
<path d="M14.7251 5.25122C14.7251 5.40747 14.7251 5.53247 14.7251 5.68872C14.7251 10.0325 11.4438 15.0012 5.4126 15.0012C3.5376 15.0012 1.81885 14.47 0.381348 13.5325C0.631348 13.5637 0.881348 13.595 1.1626 13.595C2.69385 13.595 4.1001 13.0637 5.2251 12.1887C3.7876 12.1575 2.56885 11.22 2.1626 9.90747C2.38135 9.93872 2.56885 9.96997 2.7876 9.96997C3.06885 9.96997 3.38135 9.90747 3.63135 9.84497C2.13135 9.53247 1.00635 8.21997 1.00635 6.62622V6.59497C1.44385 6.84497 1.9751 6.96997 2.50635 7.00122C1.6001 6.40747 1.0376 5.40747 1.0376 4.28247C1.0376 3.65747 1.19385 3.09497 1.4751 2.62622C3.1001 4.59497 5.5376 5.90747 8.25635 6.06372C8.19385 5.81372 8.1626 5.56372 8.1626 5.31372C8.1626 3.50122 9.63135 2.03247 11.4438 2.03247C12.3813 2.03247 13.2251 2.40747 13.8501 3.06372C14.5688 2.90747 15.2876 2.62622 15.9126 2.25122C15.6626 3.03247 15.1626 3.65747 14.4751 4.06372C15.1313 4.00122 15.7876 3.81372 16.3501 3.56372C15.9126 4.21997 15.3501 4.78247 14.7251 5.25122Z" fill="#707070"/>
</svg>
