<svg width="19" height="17" viewBox="0 0 19 17" fill="none" xmlns="http://www.w3.org/2000/svg">
<path d="M17.5176 4.40747C17.8926 5.71997 17.8926 8.53247 17.8926 8.53247C17.8926 8.53247 17.8926 11.3137 17.5176 12.6575C17.3301 13.4075 16.7363 13.97 16.0176 14.1575C14.6738 14.5012 9.36133 14.5012 9.36133 14.5012C9.36133 14.5012 4.01758 14.5012 2.67383 14.1575C1.95508 13.97 1.36133 13.4075 1.17383 12.6575C0.798828 11.3137 0.798828 8.53247 0.798828 8.53247C0.798828 8.53247 0.798828 5.71997 1.17383 4.40747C1.36133 3.65747 1.95508 3.06372 2.67383 2.87622C4.01758 2.50122 9.36133 2.50122 9.36133 2.50122C9.36133 2.50122 14.6738 2.50122 16.0176 2.87622C16.7363 3.06372 17.3301 3.65747 17.5176 4.40747ZM7.61133 11.0637L12.0488 8.53247L7.61133 6.00122V11.0637Z" fill="#707070"/>
</svg>
