<svg width="13" height="17" viewBox="0 0 13 17" fill="none" xmlns="http://www.w3.org/2000/svg">
<g clip-path="url(#clip0_1_342)">
<path d="M11.7563 8.26123L7.16255 12.8862C6.97505 13.0737 6.79797 13.0737 6.6313 12.8862L6.0063 12.2925C5.83964 12.105 5.83964 11.9279 6.0063 11.7612L9.72505 8.01123L6.0063 4.26123C5.83964 4.09456 5.83964 3.91748 6.0063 3.72998L6.6313 3.13623C6.79797 2.94873 6.97505 2.94873 7.16255 3.13623L11.7563 7.76123C11.923 7.9279 11.923 8.09456 11.7563 8.26123ZM6.7563 7.76123C6.92297 7.9279 6.92297 8.09456 6.7563 8.26123L2.16255 12.8862C1.97505 13.0737 1.79797 13.0737 1.6313 12.8862L1.0063 12.2925C0.839635 12.105 0.839635 11.9279 1.0063 11.7612L4.72505 8.01123L1.0063 4.26123C0.839635 4.09456 0.839635 3.91748 1.0063 3.72998L1.6313 3.13623C1.79797 2.94873 1.97505 2.94873 2.16255 3.13623L6.7563 7.76123Z" fill="#3A10E5"/>
</g>
<defs>
<clipPath id="clip0_1_342">
<rect width="12" height="16" fill="white" transform="matrix(1 0 0 -1 0.881302 16.0112)"/>
</clipPath>
</defs>
</svg>
